<?xml version="1.0" encoding="utf-8"?>
<!-- Svg Vector Icons : http://www.onlinewebfonts.com/icon -->
<!DOCTYPE svg PUBLIC "-//W3C//DTD SVG 1.1//EN" "http://www.w3.org/Graphics/SVG/1.1/DTD/svg11.dtd">
<svg version="1.1" xmlns="http://www.w3.org/2000/svg" xmlns:xlink="http://www.w3.org/1999/xlink" x="0px" y="0px" viewBox="0 0 256 256" enable-background="new 0 0 256 256" xml:space="preserve">
<metadata> Svg Vector Icons : http://www.onlinewebfonts.com/icon </metadata>
<g><g><g><path fill="#000000" d="M82.4,35.8C80.4,47.2,69.6,58,58.2,60c-3.5,0.6-4.6,1.4-2,1.4c2.2,0,6.6,1.4,10.5,3.5c7.6,4,14.2,12.9,15.7,21.1c0.6,3.5,1.4,4.6,1.4,2c0-4.8,4-12.8,8.9-17.6c4.8-4.9,12.9-8.9,17.6-8.9c2.6,0,1.5-0.8-2-1.4c-8.2-1.4-17.1-8-21.1-15.7c-2-3.9-3.5-8.3-3.5-10.5C83.8,31.2,82.9,32.3,82.4,35.8z M86.9,57.3l3.6,3.6l-3.6,3.6L83.2,68l-3.6-3.6l-3.6-3.6l3.5-3.5c1.9-1.9,3.5-3.6,3.6-3.6C83.2,53.7,84.9,55.3,86.9,57.3z"/><path fill="#000000" d="M173.8,44.9c-25,3.2-45.7,19.6-54.2,42.9c-4.7,13-4.9,28.3-0.7,41.6l1.5,4.7h4.5h4.5l-1.7-4.6c-10.3-27.4,1.7-57.6,28.1-70.9c19.5-9.8,43.2-7.1,60.7,6.8l4.2,3.3L205.9,69L191,69.2l-1,1.2c-1.3,1.6-1.2,3.9,0.3,5.4l1.2,1.3h18h18l1.3,1.9c2.3,3.6,6.5,12.6,6.5,14.2c0,0.1-13.5,0.2-30,0.2h-30.1l-1.2,1.2l-1.2,1.2l-0.2-3.4c-0.5-6-3.9-11.1-9.3-13.8c-2.1-1-3.3-1.3-6.9-1.3s-4.8,0.3-6.9,1.3c-3.3,1.6-6.3,4.6-7.9,7.9c-1.8,3.7-1.8,10.1,0,13.7c1.6,3.3,4.6,6.3,7.9,7.9c3.6,1.8,10.2,1.8,13.5,0.1c4.8-2.5,7.2-5.2,9-10.1c0.6-1.8,0.7-1.8,0.7-0.5c0,0.8,0.6,2,1.3,2.6l1.2,1.3h31h31l0.4,2.3c0.4,3.1,0.4,8.5,0,11.6l-0.4,2.3h-31h-31l-1.2,1.3c-1.7,1.6-1.7,4,0,5.6c1.2,1.3,1.3,1.3,10.9,1.3h9.7l-1.5,2c-2.8,3.9-3.2,9.4-0.8,13.1c0.7,1,0.7,1.2-0.1,1.2c-0.5,0-1.4,0.6-2,1.3c-1.7,1.6-1.7,4,0,5.6l1.2,1.3h14.6h14.6l-2,1.8c-8.7,7.5-19.3,12.4-30.5,14c-2.2,0.3-32.6,0.5-81.4,0.5c-77.5,0-77.8,0-78.9,1c-2,1.9-1.9,4.7,0.4,6.5c0.6,0.5,24.6,0.6,108,0.7h107.2l1.2-1.3c1.7-1.6,1.7-4,0-5.6l-1.2-1.3h-15.4h-15.4l4.3-2.8c5.3-3.6,14.2-12.4,17.6-17.5c13.3-19.9,15-44.8,4.3-65.9c-3.3-6.6-6.3-10.7-12.5-16.9c-8.4-8.6-19.5-14.6-31.9-17.4C190.4,45.1,177.8,44.4,173.8,44.9z M159.7,86c5.2,2.2,6.5,9,2.4,13.1c-5.7,5.7-15.1,0.6-13.6-7.4C149.5,86.8,155.1,84,159.7,86z M235.3,126.1c0,1.6-4.1,10.6-6.5,14.2l-1.3,1.9h-7.3H213l1.1-2.3c1.5-3.5,1.1-7.9-1-11.3l-1.6-2.6h11.9C229.9,126,235.3,126.1,235.3,126.1z M205.6,132.3c2.5,2.5,0.9,6.9-2.6,6.9c-1.5,0-4.2-2.6-4.2-4.1c0-1.5,2.7-4.1,4.3-4.1C203.7,131,204.9,131.6,205.6,132.3z"/><path fill="#000000" d="M174,70.3c-0.8,0.8-1.3,1.8-1.3,2.8c0,1,0.5,2,1.3,2.8c0.8,0.8,1.8,1.3,2.8,1.3c1,0,2-0.5,2.8-1.3c0.8-0.8,1.3-1.8,1.3-2.8c0-1-0.5-2-1.3-2.8c-0.8-0.8-1.8-1.3-2.8-1.3C175.9,69,174.8,69.5,174,70.3z"/><path fill="#000000" d="M201.9,79.2c-4.8,2.9-4.8,9.3,0,12.2c6,3.6,13.2-3.6,9.6-9.6c-1.3-2.1-3.9-3.7-6.1-3.7C204.4,78.2,202.8,78.6,201.9,79.2z"/><path fill="#000000" d="M25.8,81.1c0,1.6-2.1,5.4-4,7.5c-1.9,1.9-6.2,4.4-7.8,4.4c-0.5,0-0.9,0.2-0.9,0.5c0,0.3,0.4,0.5,0.9,0.5c1.6,0,6,2.4,7.8,4.4c1.9,2,3.9,5.8,4,7.4c0,0.5,0.3,0.9,0.5,0.9c0.3,0,0.5-0.4,0.5-0.9c0.1-1.6,2.1-5.4,4-7.4c1.9-1.9,6.2-4.4,7.9-4.4c0.5,0,0.9-0.3,0.9-0.5c0-0.3-0.4-0.5-0.9-0.5c-1.7,0-6-2.4-7.9-4.4c-1.9-2-3.9-5.8-4-7.5c0-0.5-0.2-0.9-0.5-0.9C26,80.2,25.8,80.6,25.8,81.1z"/><path fill="#000000" d="M185.1,106.2c-1.3,1.3-0.3,3.5,1.5,3.5c0.5,0,1.1-0.5,1.4-1C189.1,106.6,186.7,104.6,185.1,106.2z"/><path fill="#000000" d="M217.8,110.9c-1.4,1-0.8,3.1,0.9,3.3c1.4,0.2,2.8-1.4,2.2-2.4C220.2,110.7,218.7,110.2,217.8,110.9z"/><path fill="#000000" d="M157.8,119.1c-0.8,0.8-1.3,1.8-1.3,2.8c0,1,0.5,2,1.3,2.8c0.8,0.8,1.8,1.3,2.8,1.3c1,0,2-0.5,2.8-1.3c0.8-0.8,1.3-1.8,1.3-2.8c0-1-0.5-2-1.3-2.8c-0.8-0.8-1.8-1.3-2.8-1.3S158.5,118.3,157.8,119.1z"/><path fill="#000000" d="M140.5,121.5c-1.1,0.8-0.9,2.3,0.4,3.1c1.9,1.2,3.9-1.8,2.1-3.1c-0.5-0.4-1.1-0.7-1.2-0.7C141.6,120.9,141,121.2,140.5,121.5z"/><path fill="#000000" d="M27.5,143.5c-0.8,0.8-1.3,1.8-1.3,2.8c0,1,0.5,2,1.3,2.8c0.8,0.8,1.8,1.3,2.8,1.3c1,0,2-0.5,2.8-1.3c0.8-0.8,1.3-1.8,1.3-2.8c0-1-0.5-2-1.3-2.8c-0.8-0.8-1.8-1.3-2.8-1.3S28.3,142.7,27.5,143.5z"/><path fill="#000000" d="M52.7,142.9c-2.2,1.7-2.4,4.5-0.4,6.5c1.1,1,1.6,1,39.5,1h38.4l3.8,4.1l3.8,4.1h6.9h6.9l-4-3c-2.2-1.7-4.4-3.5-4.9-4.1l-1-1.1h10.3c10.2,0,10.3,0,11.5-1.3c0.8-0.8,1.3-1.8,1.3-2.8c0-1-0.5-2-1.3-2.8l-1.2-1.3h-54.3C65.9,142.3,53.3,142.4,52.7,142.9z"/><path fill="#000000" d="M174,143.5c-2.5,2.5-0.8,6.9,2.8,6.9c2.1,0,4.1-2,4.1-4.1s-2-4.1-4.1-4.1C175.9,142.2,174.8,142.7,174,143.5z"/><path fill="#000000" d="M169.2,155.2c-1.3,1.6,0.7,4.1,2.4,3c1.7-1.1,1.1-3.8-0.9-3.8C170.2,154.4,169.6,154.8,169.2,155.2z"/><path fill="#000000" d="M11.3,192.3c-0.8,0.8-1.3,1.8-1.3,2.8c0,1,0.5,2,1.3,2.8l1.2,1.3h107.4h107.4l1.2-1.3c1.7-1.6,1.7-4,0-5.6l-1.2-1.3H119.9H12.5L11.3,192.3z"/><path fill="#000000" d="M52,216.8c-0.8,0.8-1.3,1.8-1.3,2.8c0,1,0.5,2,1.3,2.8l1.2,1.3h78.9H211l1.2-1.3c1.7-1.6,1.7-4,0-5.6l-1.2-1.3h-78.9H53.2L52,216.8z"/><path fill="#000000" d="M231,216.8c-2.5,2.5-0.8,6.9,2.8,6.9c2.1,0,4.1-2,4.1-4.1c0-2.1-2-4.1-4.1-4.1C232.8,215.5,231.8,215.9,231,216.8z"/></g></g></g>
</svg>