<?xml version="1.0" standalone="no"?>
<!DOCTYPE svg PUBLIC "-//W3C//DTD SVG 20010904//EN"
 "http://www.w3.org/2000/svg">
<svg version="1.0" xmlns="http://www.w3.org/2000/svg"
 width="1280.000000pt" height="1280.000000pt" viewBox="0 0 1280.000000 1280.000000"
 preserveAspectRatio="xMidYMid meet">
<g transform="translate(0.000000,1280.000000) scale(0.100000,-0.100000)" stroke="none">
<path d="M1317 9700 c-135 -23 -240 -74 -288 -140 -10 -14 -25 -52 -34 -85
-33 -128 29 -283 212 -533 224 -304 820 -859 1288 -1197 61 -44 225 -165 365
-268 292 -217 577 -410 830 -565 14 -9 21 -11 15 -5 -5 6 -113 79 -239 163
-417 277 -1156 832 -1438 1080 -255 225 -590 564 -703 713 -50 65 -145 229
-178 305 -106 246 -15 411 255 468 82 18 429 21 501 4 23 -5 108 -18 189 -30
80 -11 161 -25 180 -31 18 -5 89 -21 158 -35 69 -14 150 -34 180 -44 30 -10
125 -37 210 -59 189 -51 233 -64 389 -117 8 -2 11 -7 8 -10 -3 -3 -50 8 -104
24 -213 65 -767 207 -868 222 -38 6 -97 17 -131 25 -33 8 -139 21 -235 31
-430 40 -670 -28 -723 -207 -47 -156 79 -409 350 -703 299 -325 436 -453 764
-716 382 -307 1092 -825 1363 -995 70 -44 127 -86 127 -93 0 -10 -7 -12 -21
-9 -21 6 -21 5 1 -18 23 -24 23 -26 11 -152 -59 -650 88 -1277 417 -1788 285
-441 661 -771 1138 -1000 430 -206 919 -305 1369 -275 430 28 817 137 1178
331 204 110 438 271 521 358 17 17 39 31 51 31 12 0 93 -30 181 -66 869 -360
1717 -638 2319 -759 343 -70 671 -93 855 -61 246 43 346 160 306 357 -69 336
-576 883 -1421 1534 -287 221 -267 196 51 -62 109 -88 242 -196 294 -238 105
-86 166 -142 445 -415 468 -457 644 -827 477 -1004 -97 -102 -297 -155 -537
-142 -66 4 -241 27 -389 52 -452 76 -1196 286 -1696 479 -314 121 -799 314
-830 330 -31 16 -40 35 -16 35 7 0 71 -24 142 -54 126 -52 615 -245 744 -294
174 -65 690 -236 805 -267 453 -121 565 -148 733 -179 281 -52 351 -60 542
-60 183 0 246 8 344 44 202 76 235 264 90 514 -57 97 -132 199 -214 291 -351
389 -550 567 -1147 1032 -335 261 -590 444 -939 672 l-221 144 -2 141 c-3 275
-39 579 -91 778 -50 194 -152 451 -243 616 -151 273 -472 648 -697 814 -135
99 -383 261 -475 309 -241 127 -634 247 -935 284 -149 19 -493 19 -675 0 -439
-45 -885 -201 -1235 -431 -87 -57 -105 -65 -133 -59 -23 4 -28 3 -17 -4 10 -7
11 -13 5 -19 -6 -6 -68 16 -165 59 -85 38 -272 113 -415 168 -143 55 -318 122
-390 150 -71 28 -238 89 -370 136 -132 47 -249 90 -260 96 -45 22 34 -1 205
-59 234 -80 531 -189 835 -307 138 -53 257 -99 265 -102 10 -4 12 -3 5 4 -5 6
-122 55 -260 111 -1041 418 -1911 676 -2515 746 -141 17 -381 19 -463 6z
m1038 -371 c283 -27 693 -124 1175 -276 413 -130 1199 -424 1208 -451 10 -31
-43 -18 -230 57 -1352 536 -2367 738 -2645 525 -258 -196 108 -722 997 -1435
245 -196 557 -426 815 -601 101 -69 138 -108 102 -108 -17 0 -317 205 -552
378 -1109 814 -1672 1447 -1549 1740 65 157 274 210 679 171z m1625 -979 c127
-23 342 -75 378 -90 13 -6 22 -16 19 -23 -2 -6 -38 -57 -79 -112 -112 -151
-198 -293 -284 -467 -42 -87 -81 -158 -87 -158 -32 0 -322 286 -418 413 -124
164 -166 303 -113 374 26 35 89 71 146 83 70 15 311 4 438 -20z m5369 -2193
c5 -13 54 -54 111 -93 614 -419 1116 -820 1471 -1174 454 -452 602 -755 452
-921 -78 -86 -200 -121 -420 -120 -386 1 -911 119 -1643 369 -282 96 -751 269
-764 282 -7 7 -6 14 2 22 14 14 25 10 292 -92 334 -127 721 -255 1034 -341
599 -164 1053 -210 1274 -127 71 26 136 91 153 150 15 55 0 150 -36 233 -153
347 -736 900 -1610 1526 -223 160 -312 219 -330 219 -16 0 -18 11 -9 59 8 37
12 38 23 8z m56 -679 c366 -371 421 -581 170 -653 -50 -15 -85 -17 -230 -11
-205 7 -468 50 -473 77 -2 9 23 59 54 110 95 155 229 442 274 584 16 51 19 55
33 55 6 0 84 -73 172 -162z"/>
</g>
</svg>
